<?xml version="1.0" encoding="iso-8859-1"?>
<!-- Generator: Adobe Illustrator 15.0.0, SVG Export Plug-In . SVG Version: 6.00 Build 0)  -->
<!DOCTYPE svg PUBLIC "-//W3C//DTD SVG 1.1//EN" "http://www.w3.org/Graphics/SVG/1.1/DTD/svg11.dtd">
<svg version="1.1" id="Layer_1" xmlns="http://www.w3.org/2000/svg" xmlns:xlink="http://www.w3.org/1999/xlink" x="0px" y="0px"
	 width="128px" height="128px" viewBox="0 0 128 128" style="enable-background:new 0 0 128 128;" xml:space="preserve">
<g>
	<path style="fill:#E2574C;" d="M128,63.5c0,35.346-28.653,64-64,64c-35.346,0-64-28.654-64-64s28.654-63,64-63
		C99.347,0.5,128,28.154,128,63.5z"/>
	<path style="fill:#F5F5F5;" d="M78.74,19.5h-48c-1.1,0-2.316,0.9-2.316,2v86c0,1.1,1.216,2,2.316,2h66c1.101,0,1.685-0.9,1.685-2
		v-67L78.74,19.5z"/>
	<path style="fill:#FFFFFF;" d="M80.74,40.5c-1.1,0-2.315-0.9-2.315-2v-19l20.315,21H80.74z"/>
	<path style="fill:#CC584C;" d="M42.425,28.5c-4,0-7.684,3.582-7.684,8h7.684V28.5z"/>
	<path style="fill:#3D5866;" d="M43.425,29.5v8h-7.684c0,4.418,3.582,8,8,8s7.842-3.582,7.842-8S48.425,29.5,43.425,29.5z"/>
	<path style="fill:#3D5866;" d="M43.425,84.5v8h-7.684c0,4.418,3.582,8,8,8s7.842-3.582,7.842-8S48.425,84.5,43.425,84.5z"/>
	<rect x="56.425" y="30.5" style="fill:#CC584C;" width="18" height="2"/>
	<rect x="45.425" y="61.5" style="fill:#CC584C;" width="44" height="2"/>
	<rect x="56.425" y="35.5" style="fill:#B3B3B3;" width="18" height="1"/>
	<rect x="45.425" y="65.5" style="fill:#B3B3B3;" width="36" height="1"/>
	<rect x="56.425" y="87.5" style="fill:#B3B3B3;" width="32" height="1"/>
	<rect x="56.425" y="90.5" style="fill:#B3B3B3;" width="32" height="1"/>
	<rect x="56.425" y="93.5" style="fill:#B3B3B3;" width="32" height="1"/>
	<rect x="56.425" y="96.5" style="fill:#B3B3B3;" width="32" height="1"/>
	<rect x="56.425" y="99.5" style="fill:#B3B3B3;" width="32" height="1"/>
	<rect x="45.425" y="68.5" style="fill:#B3B3B3;" width="42" height="1"/>
	<rect x="45.425" y="71.5" style="fill:#B3B3B3;" width="24" height="1"/>
	<rect x="56.425" y="37.5" style="fill:#B3B3B3;" width="18" height="1"/>
	<rect x="56.425" y="39.5" style="fill:#B3B3B3;" width="18" height="1"/>
	<rect x="56.425" y="41.5" style="fill:#B3B3B3;" width="18" height="1"/>
	<path style="fill:#CC584C;" d="M42.425,61.5c-4,0-7.684,3.582-7.684,8h7.684V61.5z"/>
</g>
</svg>
