<?xml version="1.0" encoding="iso-8859-1"?>
<!-- Generator: Adobe Illustrator 15.0.0, SVG Export Plug-In . SVG Version: 6.00 Build 0)  -->
<!DOCTYPE svg PUBLIC "-//W3C//DTD SVG 1.1//EN" "http://www.w3.org/Graphics/SVG/1.1/DTD/svg11.dtd">
<svg version="1.1" id="Layer_1" xmlns="http://www.w3.org/2000/svg" xmlns:xlink="http://www.w3.org/1999/xlink" x="0px" y="0px"
	 width="128px" height="128px" viewBox="0 0 128 128" style="enable-background:new 0 0 128 128;" xml:space="preserve">
<g>
	<circle style="fill:#88C5CC;" cx="64" cy="64" r="64"/>
	<g>
		<g>
			<path style="fill:#263740;" d="M94.325,62.016c-0.191-0.66-0.899-1.041-1.574-0.856c-15.337,2.69-25.926,2.69-41.264,0
				c-0.675-0.185-1.383,0.196-1.575,0.856l0,0c-0.191,0.659,0.221,1.365,0.917,1.557c15.823,2.771,26.755,2.771,42.579,0
				C94.104,63.381,94.516,62.675,94.325,62.016L94.325,62.016z"/>
		</g>
		<g>
			<g>
				
					<rect x="46.363" y="30.048" transform="matrix(-0.9272 -0.3746 0.3746 -0.9272 68.8767 148.4186)" style="fill:#FFC066;" width="4.995" height="74.937"/>
				
					<rect x="49.969" y="30.748" transform="matrix(-0.9276 -0.3737 0.3737 -0.9276 72.0307 150.3996)" style="fill:#E6AD5C;" width="1.249" height="74.94"/>
				<polygon style="fill:#CCCCCC;" points="30.138,113.836 33.659,101.787 35.975,102.725 				"/>
			</g>
			<g>
				
					<rect x="76.656" y="30.051" transform="matrix(-0.9272 0.3746 -0.3746 -0.9272 177.8358 100.4758)" style="fill:#FFC066;" width="4.995" height="74.94"/>
				
					<rect x="80.26" y="29.346" transform="matrix(-0.9274 0.3741 -0.3741 -0.9274 180.8908 98.5227)" style="fill:#E6AD5C;" width="1.248" height="74.941"/>
				<polygon style="fill:#CCCCCC;" points="97.861,113.836 92.025,102.723 94.341,101.787 				"/>
			</g>
		</g>
		<path style="fill:#263740;" d="M74,38.004C74,40.764,71.764,43,69.004,43H58.996C56.237,43,54,40.764,54,38.004V20.996
			C54,18.236,56.237,16,58.996,16h10.008C71.764,16,74,18.236,74,20.996V38.004z"/>
		<path style="fill:#F5F5F5;" d="M67.002,39h-6.004C59.345,39,58,37.654,58,36.002V22.998C58,21.346,59.345,20,60.998,20h6.004
			C68.654,20,70,21.346,70,22.998v13.004C70,37.654,68.654,39,67.002,39z M60.998,21C59.896,21,59,21.896,59,22.998v13.004
			C59,37.104,59.896,38,60.998,38h6.004C68.104,38,69,37.104,69,36.002V22.998C69,21.896,68.104,21,67.002,21H60.998z"/>
		<rect x="63" y="12" style="fill:#CCCCCC;" width="2" height="4"/>
		<path style="fill:#263740;" d="M67,8.249C67,7.561,66.441,7,65.751,7h-3.502C61.559,7,61,7.561,61,8.249v3.502
			C61,12.439,61.559,13,62.249,13h3.502C66.441,13,67,12.439,67,11.751V8.249z"/>
		<circle style="fill:#263740;" cx="37.771" cy="95.786" r="3.747"/>
		<circle style="fill:#CC584C;" cx="37.771" cy="95.786" r="1.249"/>
		<circle style="fill:#263740;" cx="90.229" cy="95.786" r="3.747"/>
		<circle style="fill:#E16B5A;" cx="90.229" cy="95.786" r="1.249"/>
	</g>
</g>
</svg>
