<?xml version="1.0" encoding="iso-8859-1"?>
<!-- Generator: Adobe Illustrator 15.0.0, SVG Export Plug-In . SVG Version: 6.00 Build 0)  -->
<!DOCTYPE svg PUBLIC "-//W3C//DTD SVG 1.1//EN" "http://www.w3.org/Graphics/SVG/1.1/DTD/svg11.dtd">
<svg version="1.1" id="Layer_1" xmlns="http://www.w3.org/2000/svg" xmlns:xlink="http://www.w3.org/1999/xlink" x="0px" y="0px"
	 width="128px" height="128px" viewBox="0 0 128 128" style="enable-background:new 0 0 128 128;" xml:space="preserve">
<g>
	<circle style="fill:#88C5CC;" cx="64" cy="63.995" r="64"/>
	<path style="fill:#80B9BF;" d="M125.5,81.699c-0.038-0.096-0.068-0.194-0.115-0.285c-0.055-0.179-0.123-0.35-0.208-0.513
		c-0.054-0.178-0.122-0.35-0.206-0.512c-0.055-0.18-0.123-0.351-0.208-0.515c-0.054-0.178-0.122-0.348-0.206-0.51
		c-0.055-0.18-0.123-0.352-0.208-0.515c-0.054-0.179-0.122-0.349-0.206-0.511c-0.054-0.178-0.12-0.348-0.205-0.509
		c-0.055-0.181-0.122-0.353-0.209-0.518c-0.054-0.179-0.121-0.35-0.206-0.513c-0.055-0.179-0.122-0.35-0.207-0.513
		c-0.055-0.179-0.122-0.349-0.207-0.512c-0.055-0.18-0.122-0.351-0.207-0.514c-0.055-0.178-0.122-0.349-0.206-0.511
		c-0.055-0.18-0.123-0.351-0.208-0.515c-0.054-0.178-0.122-0.349-0.206-0.51c-0.055-0.181-0.123-0.352-0.208-0.516
		c-0.054-0.178-0.122-0.348-0.206-0.51c-0.054-0.18-0.123-0.352-0.208-0.514c-0.054-0.18-0.122-0.351-0.207-0.514
		c-0.054-0.178-0.122-0.349-0.207-0.512c-0.054-0.179-0.122-0.35-0.207-0.513c-0.053-0.178-0.12-0.347-0.204-0.508
		c-0.054-0.181-0.123-0.354-0.209-0.519c-0.054-0.178-0.122-0.348-0.206-0.51c-0.055-0.181-0.123-0.352-0.208-0.516
		c-0.054-0.178-0.122-0.348-0.206-0.51c-0.054-0.18-0.123-0.35-0.207-0.514c-0.055-0.18-0.122-0.351-0.208-0.514
		c-0.054-0.179-0.121-0.349-0.205-0.512c-0.056-0.179-0.123-0.35-0.209-0.513c-0.054-0.178-0.121-0.349-0.205-0.512
		c-0.056-0.18-0.123-0.351-0.208-0.514c-0.055-0.178-0.122-0.349-0.206-0.511c-0.056-0.18-0.123-0.351-0.208-0.515
		c-0.055-0.179-0.122-0.349-0.206-0.511c-0.055-0.18-0.123-0.351-0.207-0.514c-0.055-0.177-0.121-0.347-0.205-0.508
		c-0.055-0.182-0.123-0.354-0.209-0.518c-0.055-0.179-0.122-0.35-0.207-0.513c-0.055-0.179-0.122-0.349-0.207-0.512
		c-0.054-0.179-0.122-0.351-0.207-0.513c-0.054-0.179-0.122-0.35-0.206-0.512c-0.055-0.18-0.123-0.351-0.208-0.515
		c-0.054-0.178-0.122-0.349-0.206-0.51c-0.054-0.181-0.123-0.351-0.208-0.515c-0.054-0.179-0.122-0.35-0.207-0.513
		c-0.054-0.179-0.122-0.349-0.207-0.512c-0.054-0.18-0.122-0.351-0.207-0.514c-0.054-0.178-0.122-0.349-0.207-0.512
		c-0.054-0.179-0.122-0.35-0.207-0.513c-0.054-0.178-0.122-0.35-0.206-0.512c-0.055-0.18-0.123-0.351-0.208-0.515
		c-0.054-0.176-0.12-0.345-0.204-0.506c-0.054-0.181-0.123-0.353-0.208-0.518c-0.055-0.18-0.123-0.351-0.208-0.514
		c-0.054-0.178-0.122-0.349-0.206-0.512c-0.055-0.179-0.123-0.349-0.208-0.512c-0.054-0.18-0.122-0.351-0.206-0.514
		c-0.055-0.179-0.123-0.35-0.208-0.513c-0.054-0.178-0.122-0.349-0.206-0.512c-0.055-0.18-0.122-0.351-0.207-0.514
		c-0.055-0.179-0.122-0.349-0.206-0.512c-0.056-0.179-0.123-0.349-0.208-0.513c-0.055-0.179-0.122-0.35-0.207-0.513
		c-0.055-0.179-0.122-0.35-0.207-0.512c-0.055-0.18-0.122-0.35-0.206-0.513c-0.056-0.179-0.123-0.351-0.208-0.513
		c-0.054-0.178-0.12-0.347-0.204-0.509c-0.054-0.18-0.123-0.352-0.209-0.517c-0.055-0.179-0.122-0.35-0.207-0.513
		c-0.054-0.179-0.122-0.35-0.207-0.513c-0.054-0.179-0.122-0.35-0.207-0.512c-0.054-0.18-0.122-0.35-0.207-0.513
		c-0.054-0.18-0.122-0.35-0.207-0.514c-0.054-0.178-0.122-0.349-0.207-0.512c-0.054-0.179-0.122-0.35-0.206-0.512
		c-0.055-0.181-0.123-0.351-0.208-0.515c-0.054-0.178-0.122-0.349-0.206-0.512c-0.055-0.179-0.123-0.35-0.208-0.512
		c-0.054-0.181-0.122-0.351-0.207-0.514c-0.054-0.179-0.122-0.349-0.207-0.513c-0.054-0.178-0.122-0.349-0.207-0.512
		c-0.053-0.178-0.12-0.347-0.204-0.508c-0.055-0.182-0.123-0.354-0.209-0.518c-0.054-0.179-0.122-0.349-0.207-0.513
		c-0.054-0.178-0.122-0.35-0.207-0.512c-0.054-0.18-0.122-0.35-0.206-0.513c-0.054-0.18-0.123-0.35-0.208-0.514
		c-0.054-0.178-0.122-0.349-0.207-0.512c-0.054-0.18-0.122-0.351-0.207-0.513c-0.054-0.18-0.122-0.35-0.207-0.513
		c-0.054-0.179-0.121-0.349-0.207-0.513c-0.054-0.179-0.121-0.35-0.207-0.513c-0.054-0.179-0.121-0.35-0.206-0.512
		c-0.055-0.18-0.122-0.35-0.207-0.513c-0.055-0.18-0.122-0.35-0.207-0.514c-0.055-0.178-0.122-0.348-0.206-0.512
		c-0.055-0.177-0.121-0.347-0.205-0.509c-0.056-0.181-0.123-0.354-0.209-0.517c-0.055-0.179-0.122-0.35-0.207-0.513
		c-0.055-0.179-0.122-0.35-0.207-0.512c-0.055-0.18-0.122-0.351-0.207-0.513c-0.054-0.18-0.122-0.35-0.207-0.514
		c-0.054-0.178-0.122-0.349-0.207-0.512c-0.376-1.203-1.512-2.113-2.863-2.113h-4H50.271h-2c-0.993-1.787-2.897-3-5.084-3h-3H28.813
		c-3.204,0-5.813,2.607-5.813,5.813v70.375c0,0.867,0.196,1.688,0.538,2.429c0.062,0.174,0.13,0.343,0.206,0.509
		c0.061,0.173,0.129,0.343,0.205,0.509c0.062,0.177,0.131,0.352,0.21,0.521c0.061,0.174,0.129,0.343,0.205,0.509
		c0.062,0.176,0.132,0.348,0.209,0.516c0.061,0.174,0.129,0.343,0.205,0.509c0.062,0.177,0.132,0.349,0.209,0.517
		c0.061,0.174,0.129,0.343,0.205,0.509c0.062,0.176,0.132,0.348,0.209,0.516c0.06,0.172,0.128,0.34,0.202,0.505
		c0.063,0.178,0.133,0.352,0.211,0.521c0.061,0.174,0.129,0.343,0.204,0.509c0.063,0.175,0.132,0.346,0.207,0.513
		c0.063,0.177,0.133,0.349,0.209,0.517c0.062,0.174,0.13,0.343,0.205,0.509c0.063,0.176,0.132,0.348,0.209,0.516
		c0.062,0.172,0.128,0.341,0.203,0.506c0.063,0.177,0.133,0.351,0.211,0.52c0.062,0.174,0.129,0.343,0.205,0.509
		c0.063,0.176,0.131,0.349,0.209,0.517c0.062,0.174,0.129,0.343,0.205,0.509c0.063,0.175,0.131,0.346,0.207,0.513
		c0.063,0.176,0.131,0.348,0.209,0.516c0.062,0.175,0.129,0.344,0.205,0.51c0.063,0.175,0.13,0.345,0.207,0.512
		c0.061,0.175,0.13,0.346,0.207,0.513c0.062,0.177,0.131,0.349,0.208,0.517c0.062,0.174,0.13,0.343,0.206,0.509
		c0.062,0.176,0.131,0.348,0.208,0.516c0.062,0.174,0.13,0.343,0.206,0.509c0.061,0.176,0.13,0.347,0.207,0.514
		c0.062,0.176,0.131,0.348,0.208,0.516c0.05,0.143,0.106,0.279,0.167,0.415c9.783,6.065,21.314,9.577,33.672,9.577
		C93.201,127.995,117.817,108.43,125.5,81.699z"/>
	<path style="fill:#406A80;" d="M104,98.995c0,1.65-1.35,3-3,3H45c-1.65,0-3-1.35-3-3v-70c0-1.65,1.35-3,3-3h56c1.65,0,3,1.35,3,3
		V98.995z"/>
	<path style="fill:#395F73;" d="M42,28.995v70c0,1.65,1.35,3,3,3h5.271c0.464-0.834,0.729-1.792,0.729-2.813V28.808
		c0-1.021-0.266-1.979-0.729-2.813H45C43.35,25.995,42,27.345,42,28.995z"/>
	<path style="fill:#395F73;" d="M101,25.995H45c-0.352,0-0.686,0.072-1,0.186v21.814h60v-19C104,27.345,102.65,25.995,101,25.995z"
		/>
	<path style="fill:#335466;" d="M44,26.181v21.814h7V28.808c0-1.021-0.266-1.979-0.729-2.813H45c-0.18,0-0.354,0.022-0.523,0.053
		C44.313,26.081,44.154,26.126,44,26.181z"/>
	<path style="fill:#395F73;" d="M101,25.995h-4c1.65,0,3,1.35,3,3v70c0,1.65-1.35,3-3,3h4c1.65,0,3-1.35,3-3v-70
		C104,27.345,102.65,25.995,101,25.995z"/>
	<path style="fill:#335466;" d="M101,25.995h-4c1.65,0,3,1.35,3,3v19h4v-19C104,27.345,102.65,25.995,101,25.995z"/>
	<path style="fill:#406A80;" d="M43.188,104.995H28.813c-3.204,0-5.813-2.607-5.813-5.813V28.808c0-3.205,2.607-5.813,5.813-5.813
		h14.375c3.205,0,5.813,2.607,5.813,5.813v70.375C49,102.388,46.393,104.995,43.188,104.995z"/>
	<path style="fill:#335466;" d="M43.188,22.995h-3c3.205,0,5.813,2.607,5.813,5.813v70.375c0,3.205-2.607,5.813-5.813,5.813h3
		c3.205,0,5.813-2.607,5.813-5.813V28.808C49,25.603,46.393,22.995,43.188,22.995z"/>
	<rect x="61" y="30.995" style="fill:#263740;" width="32" height="14"/>
	<rect x="62" y="31.995" style="fill:#E6E6E6;" width="30" height="12"/>
	<g>
		<g>
			<path style="fill:#263740;" d="M71,59.995c0,1.1-0.9,2-2,2h-6c-1.1,0-2-0.9-2-2v-6c0-1.1,0.9-2,2-2h6c1.1,0,2,0.9,2,2V59.995z"/>
		</g>
		<g>
			<path style="fill:#263740;" d="M82,59.995c0,1.1-0.9,2-2,2h-6c-1.1,0-2-0.9-2-2v-6c0-1.1,0.9-2,2-2h6c1.1,0,2,0.9,2,2V59.995z"/>
		</g>
		<g>
			<path style="fill:#263740;" d="M93,59.995c0,1.1-0.9,2-2,2h-6c-1.1,0-2-0.9-2-2v-6c0-1.1,0.9-2,2-2h6c1.1,0,2,0.9,2,2V59.995z"/>
		</g>
		<g>
			<path style="fill:#263740;" d="M71,70.995c0,1.1-0.9,2-2,2h-6c-1.1,0-2-0.9-2-2v-6c0-1.1,0.9-2,2-2h6c1.1,0,2,0.9,2,2V70.995z"/>
		</g>
		<g>
			<path style="fill:#263740;" d="M82,70.995c0,1.1-0.9,2-2,2h-6c-1.1,0-2-0.9-2-2v-6c0-1.1,0.9-2,2-2h6c1.1,0,2,0.9,2,2V70.995z"/>
		</g>
		<g>
			<path style="fill:#263740;" d="M93,70.995c0,1.1-0.9,2-2,2h-6c-1.1,0-2-0.9-2-2v-6c0-1.1,0.9-2,2-2h6c1.1,0,2,0.9,2,2V70.995z"/>
		</g>
		<g>
			<path style="fill:#263740;" d="M71,81.995c0,1.1-0.9,2-2,2h-6c-1.1,0-2-0.9-2-2v-6c0-1.1,0.9-2,2-2h6c1.1,0,2,0.9,2,2V81.995z"/>
		</g>
		<g>
			<path style="fill:#263740;" d="M82,81.995c0,1.1-0.9,2-2,2h-6c-1.1,0-2-0.9-2-2v-6c0-1.1,0.9-2,2-2h6c1.1,0,2,0.9,2,2V81.995z"/>
		</g>
		<g>
			<path style="fill:#263740;" d="M93,81.995c0,1.1-0.9,2-2,2h-6c-1.1,0-2-0.9-2-2v-6c0-1.1,0.9-2,2-2h6c1.1,0,2,0.9,2,2V81.995z"/>
		</g>
		<g>
			<path style="fill:#263740;" d="M71,92.995c0,1.1-0.9,2-2,2h-6c-1.1,0-2-0.9-2-2v-6c0-1.1,0.9-2,2-2h6c1.1,0,2,0.9,2,2V92.995z"/>
		</g>
		<g>
			<path style="fill:#263740;" d="M82,92.995c0,1.1-0.9,2-2,2h-6c-1.1,0-2-0.9-2-2v-6c0-1.1,0.9-2,2-2h6c1.1,0,2,0.9,2,2V92.995z"/>
		</g>
		<g>
			<path style="fill:#263740;" d="M93,92.995c0,1.1-0.9,2-2,2h-6c-1.1,0-2-0.9-2-2v-6c0-1.1,0.9-2,2-2h6c1.1,0,2,0.9,2,2V92.995z"/>
		</g>
	</g>
	<g>
		<path style="fill:#E6E6E6;" d="M63.951,60.487h1.848v-5.861c0-0.176,0.006-0.354,0.019-0.535l-1.535,1.314
			c-0.041,0.031-0.08,0.055-0.121,0.068c-0.039,0.016-0.078,0.021-0.113,0.021c-0.061,0-0.113-0.014-0.162-0.039
			c-0.047-0.025-0.084-0.057-0.106-0.094L63.443,54.9l2.555-2.215h0.871v7.801h1.69v0.815h-4.606v-0.814H63.951z"/>
		<path style="fill:#E6E6E6;" d="M77.114,52.647c0.362,0,0.703,0.055,1.02,0.162c0.316,0.108,0.589,0.266,0.819,0.473
			c0.229,0.205,0.411,0.457,0.543,0.752c0.132,0.297,0.197,0.633,0.197,1.008c0,0.32-0.049,0.617-0.145,0.889
			c-0.096,0.272-0.226,0.533-0.39,0.783s-0.354,0.492-0.567,0.726c-0.214,0.233-0.44,0.475-0.681,0.719l-2.263,2.313
			c0.159-0.043,0.321-0.077,0.485-0.104c0.164-0.027,0.322-0.039,0.475-0.039h2.881c0.114,0,0.207,0.033,0.274,0.102
			c0.068,0.069,0.104,0.156,0.104,0.265v0.647h-5.736v-0.367c0-0.075,0.016-0.151,0.045-0.231c0.03-0.08,0.079-0.154,0.147-0.223
			l2.754-2.767c0.228-0.231,0.436-0.455,0.624-0.67c0.188-0.213,0.349-0.428,0.481-0.645c0.134-0.218,0.237-0.437,0.311-0.656
			c0.071-0.223,0.106-0.459,0.106-0.711c0-0.254-0.04-0.476-0.119-0.664c-0.08-0.189-0.189-0.348-0.33-0.471
			c-0.141-0.125-0.305-0.218-0.491-0.279c-0.188-0.063-0.392-0.094-0.606-0.094s-0.416,0.032-0.6,0.098
			c-0.186,0.063-0.348,0.152-0.489,0.266c-0.142,0.115-0.262,0.25-0.36,0.406c-0.098,0.156-0.166,0.328-0.206,0.516
			c-0.031,0.115-0.08,0.199-0.145,0.253c-0.063,0.053-0.147,0.077-0.252,0.077c-0.021,0-0.041-0.002-0.063-0.004
			c-0.021-0.002-0.047-0.004-0.073-0.008l-0.56-0.096c0.057-0.394,0.164-0.74,0.324-1.041c0.16-0.303,0.363-0.558,0.609-0.76
			c0.245-0.205,0.526-0.359,0.846-0.466C76.402,52.702,76.746,52.647,77.114,52.647z"/>
		<path style="fill:#E6E6E6;" d="M88.186,52.601c0.364,0,0.7,0.053,1.009,0.155c0.309,0.104,0.572,0.252,0.796,0.443
			c0.222,0.19,0.395,0.424,0.519,0.695c0.124,0.272,0.187,0.573,0.187,0.905c0,0.273-0.034,0.517-0.104,0.73
			c-0.069,0.213-0.17,0.399-0.3,0.563s-0.287,0.299-0.472,0.412c-0.185,0.111-0.391,0.201-0.617,0.271
			c0.56,0.147,0.979,0.396,1.263,0.744c0.283,0.348,0.423,0.782,0.423,1.309c0,0.396-0.074,0.752-0.225,1.066
			c-0.15,0.315-0.355,0.586-0.615,0.809c-0.26,0.221-0.563,0.391-0.909,0.51c-0.346,0.117-0.717,0.177-1.112,0.177
			c-0.456,0-0.847-0.058-1.17-0.171c-0.323-0.114-0.599-0.271-0.821-0.471c-0.226-0.201-0.408-0.438-0.553-0.711
			c-0.145-0.275-0.267-0.572-0.365-0.893l0.455-0.191c0.085-0.035,0.169-0.053,0.253-0.053c0.079,0,0.149,0.016,0.213,0.051
			c0.062,0.033,0.108,0.086,0.141,0.158c0.008,0.016,0.017,0.033,0.024,0.051c0.008,0.019,0.016,0.037,0.022,0.058
			c0.058,0.116,0.124,0.247,0.204,0.395c0.08,0.145,0.188,0.281,0.324,0.41s0.305,0.236,0.507,0.324s0.453,0.131,0.753,0.131
			c0.301,0,0.563-0.049,0.789-0.146c0.227-0.097,0.414-0.225,0.564-0.381c0.148-0.156,0.263-0.33,0.339-0.521
			c0.075-0.191,0.113-0.384,0.113-0.57c0-0.232-0.03-0.443-0.094-0.637c-0.062-0.191-0.174-0.357-0.336-0.498
			c-0.162-0.14-0.386-0.25-0.672-0.33c-0.286-0.078-0.652-0.119-1.101-0.119v-0.78c0.363,0,0.675-0.039,0.933-0.115
			s0.469-0.18,0.633-0.311c0.164-0.133,0.283-0.291,0.357-0.476c0.073-0.184,0.11-0.389,0.11-0.61c0-0.248-0.039-0.465-0.116-0.648
			c-0.078-0.184-0.187-0.336-0.321-0.457c-0.136-0.119-0.297-0.209-0.483-0.27c-0.186-0.062-0.387-0.09-0.603-0.09
			s-0.416,0.03-0.601,0.096c-0.185,0.063-0.348,0.152-0.488,0.268c-0.144,0.113-0.262,0.248-0.357,0.406
			c-0.095,0.158-0.168,0.33-0.216,0.514c-0.032,0.115-0.08,0.199-0.145,0.252c-0.063,0.052-0.146,0.076-0.245,0.076
			c-0.021,0-0.041,0-0.063-0.002c-0.021-0.002-0.047-0.006-0.075-0.01l-0.558-0.094c0.056-0.394,0.164-0.738,0.324-1.041
			c0.159-0.304,0.361-0.556,0.607-0.761c0.246-0.202,0.528-0.356,0.848-0.465C87.475,52.653,87.817,52.601,88.186,52.601z"/>
		<path style="fill:#E6E6E6;" d="M67.938,69.192h1.304v0.61c0,0.064-0.021,0.118-0.058,0.162c-0.039,0.044-0.098,0.066-0.178,0.066
			h-1.068v2.262h-0.94v-2.262h-3.812c-0.079,0-0.147-0.023-0.207-0.069c-0.057-0.046-0.094-0.103-0.11-0.171l-0.107-0.546
			l4.183-5.55h0.996v5.497H67.938z M66.996,65.646c0-0.104,0.002-0.217,0.01-0.336c0.006-0.119,0.019-0.243,0.039-0.372
			l-3.127,4.255h3.078V65.646z"/>
		<path style="fill:#E6E6E6;" d="M79.479,64.116c0,0.152-0.049,0.277-0.145,0.375s-0.258,0.146-0.486,0.146h-2.698l-0.396,2.258
			c0.447-0.098,0.861-0.146,1.242-0.146c0.447,0,0.842,0.066,1.186,0.198c0.343,0.132,0.629,0.313,0.859,0.546
			c0.232,0.232,0.408,0.506,0.525,0.822c0.118,0.314,0.178,0.66,0.178,1.03c0,0.456-0.08,0.868-0.24,1.236s-0.379,0.685-0.656,0.945
			c-0.278,0.262-0.604,0.463-0.981,0.603c-0.375,0.142-0.781,0.21-1.217,0.21c-0.252,0-0.494-0.023-0.728-0.073
			c-0.231-0.052-0.447-0.117-0.647-0.201c-0.199-0.084-0.386-0.182-0.56-0.288c-0.172-0.108-0.322-0.224-0.455-0.342l0.324-0.456
			c0.072-0.104,0.168-0.156,0.287-0.156c0.076,0,0.166,0.031,0.268,0.093c0.103,0.063,0.226,0.131,0.369,0.207
			c0.145,0.076,0.313,0.146,0.508,0.207c0.193,0.063,0.425,0.093,0.691,0.093c0.301,0,0.57-0.048,0.811-0.144
			c0.241-0.096,0.445-0.233,0.615-0.411s0.301-0.391,0.394-0.639c0.092-0.248,0.139-0.526,0.139-0.834
			c0-0.27-0.039-0.512-0.117-0.728s-0.195-0.398-0.354-0.552c-0.159-0.153-0.355-0.271-0.593-0.354
			c-0.236-0.083-0.512-0.126-0.827-0.126c-0.216,0-0.439,0.019-0.673,0.055c-0.232,0.036-0.473,0.094-0.721,0.174l-0.672-0.198
			l0.697-4.02h4.074L79.479,64.116L79.479,64.116z"/>
		<path style="fill:#E6E6E6;" d="M88.354,66.979c0.345,0,0.671,0.057,0.979,0.171c0.307,0.112,0.578,0.278,0.811,0.498
			c0.23,0.218,0.414,0.484,0.552,0.804c0.137,0.319,0.205,0.681,0.205,1.089c0,0.396-0.072,0.764-0.218,1.104
			c-0.145,0.34-0.346,0.636-0.604,0.888s-0.568,0.45-0.933,0.594c-0.364,0.146-0.766,0.216-1.2,0.216
			c-0.433,0-0.822-0.067-1.172-0.207c-0.353-0.138-0.65-0.334-0.898-0.588s-0.438-0.562-0.572-0.924s-0.201-0.767-0.201-1.215
			c0-0.376,0.085-0.776,0.253-1.2s0.434-0.88,0.799-1.368l2.178-2.934c0.055-0.072,0.133-0.133,0.234-0.185
			c0.1-0.05,0.213-0.073,0.342-0.073h0.947l-2.982,3.772c0.205-0.14,0.43-0.249,0.678-0.327
			C87.797,67.017,88.066,66.979,88.354,66.979z M86.133,69.594c0,0.276,0.041,0.528,0.121,0.757s0.197,0.425,0.353,0.589
			c0.151,0.164,0.342,0.291,0.563,0.381c0.223,0.09,0.475,0.135,0.76,0.135c0.287,0,0.547-0.046,0.779-0.138
			s0.432-0.222,0.598-0.386c0.166-0.163,0.293-0.356,0.386-0.581c0.09-0.225,0.135-0.469,0.135-0.731
			c0-0.28-0.045-0.533-0.133-0.759c-0.088-0.228-0.211-0.418-0.371-0.576s-0.354-0.279-0.576-0.363
			c-0.225-0.084-0.471-0.126-0.738-0.126c-0.289,0-0.549,0.049-0.779,0.147c-0.231,0.098-0.43,0.229-0.592,0.396
			s-0.287,0.358-0.373,0.576S86.133,69.358,86.133,69.594z"/>
		<path style="fill:#E6E6E6;" d="M68.922,74.696v0.479c0,0.137-0.015,0.248-0.045,0.336s-0.061,0.162-0.093,0.224l-3.56,7.182
			c-0.052,0.104-0.124,0.193-0.216,0.268c-0.092,0.073-0.216,0.11-0.372,0.11h-0.762l3.612-7.092
			c0.052-0.101,0.104-0.192,0.157-0.276c0.056-0.084,0.115-0.163,0.185-0.239h-4.488c-0.067,0-0.129-0.026-0.183-0.081
			c-0.056-0.055-0.081-0.114-0.081-0.184v-0.726H68.922L68.922,74.696z"/>
		<path style="fill:#E6E6E6;" d="M77,83.39c-0.428,0-0.82-0.057-1.176-0.17c-0.355-0.114-0.662-0.276-0.918-0.489
			c-0.256-0.211-0.455-0.47-0.594-0.771c-0.142-0.303-0.212-0.641-0.212-1.018c0-0.553,0.146-1.008,0.433-1.365
			c0.289-0.357,0.701-0.613,1.235-0.766c-0.45-0.168-0.793-0.418-1.022-0.752s-0.344-0.732-0.344-1.197
			c0-0.316,0.061-0.611,0.186-0.889c0.123-0.275,0.301-0.517,0.527-0.72c0.229-0.205,0.502-0.364,0.819-0.479
			c0.316-0.115,0.673-0.174,1.064-0.174c0.389,0,0.742,0.059,1.063,0.174c0.32,0.115,0.594,0.274,0.821,0.479
			c0.228,0.203,0.402,0.443,0.527,0.72c0.123,0.276,0.186,0.571,0.186,0.889c0,0.465-0.114,0.863-0.348,1.197
			s-0.572,0.584-1.02,0.752c0.534,0.151,0.946,0.407,1.235,0.766c0.287,0.357,0.433,0.813,0.433,1.365
			c0,0.377-0.072,0.715-0.214,1.018c-0.143,0.301-0.34,0.56-0.594,0.771c-0.256,0.213-0.561,0.375-0.916,0.489
			C77.82,83.333,77.428,83.39,77,83.39z M77,82.538c0.279,0,0.531-0.039,0.752-0.117c0.223-0.078,0.41-0.188,0.564-0.33
			c0.153-0.141,0.271-0.311,0.354-0.51c0.082-0.197,0.123-0.416,0.123-0.656c0-0.297-0.049-0.549-0.146-0.76
			c-0.099-0.209-0.23-0.381-0.396-0.512c-0.166-0.133-0.354-0.23-0.572-0.291c-0.217-0.063-0.44-0.094-0.678-0.094
			s-0.463,0.03-0.678,0.094c-0.217,0.061-0.408,0.158-0.574,0.291c-0.166,0.131-0.297,0.303-0.396,0.512
			c-0.1,0.211-0.147,0.463-0.147,0.76c0,0.24,0.041,0.459,0.123,0.656c0.082,0.199,0.201,0.369,0.354,0.51
			c0.152,0.144,0.343,0.252,0.563,0.33C76.469,82.499,76.721,82.538,77,82.538z M77,78.411c0.279,0,0.52-0.043,0.717-0.129
			s0.359-0.201,0.482-0.344c0.125-0.142,0.215-0.306,0.271-0.488c0.056-0.184,0.084-0.373,0.084-0.57c0-0.199-0.032-0.387-0.1-0.563
			c-0.066-0.178-0.164-0.33-0.295-0.463c-0.129-0.134-0.291-0.236-0.484-0.313c-0.194-0.076-0.42-0.113-0.676-0.113
			s-0.48,0.037-0.676,0.113c-0.193,0.076-0.355,0.18-0.484,0.313c-0.131,0.133-0.229,0.284-0.295,0.463
			c-0.066,0.176-0.1,0.362-0.1,0.563c0,0.197,0.028,0.388,0.084,0.57c0.057,0.184,0.146,0.348,0.271,0.488
			c0.123,0.143,0.283,0.258,0.482,0.344S76.721,78.411,77,78.411z"/>
		<path style="fill:#E6E6E6;" d="M87.616,79.813c-0.324,0-0.631-0.054-0.921-0.162c-0.29-0.107-0.545-0.267-0.766-0.478
			c-0.221-0.209-0.396-0.467-0.524-0.772c-0.129-0.307-0.195-0.656-0.195-1.053c0-0.378,0.07-0.729,0.21-1.058
			c0.141-0.328,0.336-0.613,0.588-0.856c0.253-0.244,0.553-0.437,0.9-0.576c0.347-0.141,0.729-0.211,1.146-0.211
			c0.411,0,0.785,0.067,1.121,0.205c0.337,0.137,0.624,0.325,0.864,0.569s0.425,0.535,0.556,0.875
			c0.13,0.341,0.194,0.718,0.194,1.129c0,0.248-0.022,0.482-0.068,0.705c-0.047,0.222-0.112,0.439-0.201,0.65
			c-0.088,0.213-0.192,0.424-0.314,0.633c-0.122,0.211-0.261,0.428-0.417,0.65l-2.094,3.024c-0.053,0.076-0.126,0.138-0.223,0.183
			c-0.097,0.047-0.206,0.069-0.33,0.069h-0.983l2.616-3.426c0.088-0.117,0.17-0.227,0.246-0.33c0.075-0.104,0.146-0.209,0.216-0.313
			c-0.221,0.176-0.469,0.311-0.744,0.401C88.216,79.766,87.924,79.813,87.616,79.813z M89.765,77.3c0-0.268-0.043-0.51-0.129-0.729
			c-0.087-0.219-0.205-0.402-0.356-0.555c-0.152-0.153-0.333-0.271-0.543-0.353s-0.441-0.123-0.693-0.123
			c-0.264,0-0.505,0.043-0.723,0.129c-0.219,0.086-0.404,0.205-0.559,0.357c-0.153,0.151-0.272,0.334-0.356,0.547
			c-0.084,0.211-0.126,0.443-0.126,0.695c0,0.271,0.039,0.516,0.117,0.729c0.077,0.215,0.188,0.396,0.336,0.543
			c0.146,0.148,0.323,0.26,0.533,0.336s0.444,0.115,0.705,0.115c0.287,0,0.543-0.047,0.766-0.143
			c0.222-0.095,0.408-0.22,0.561-0.375c0.152-0.156,0.27-0.337,0.35-0.539C89.725,77.731,89.765,77.521,89.765,77.3z"/>
		<path style="fill:#E6E6E6;" d="M80.119,90.001c0,0.752-0.08,1.404-0.242,1.953c-0.162,0.551-0.383,1.006-0.662,1.365
			c-0.281,0.358-0.611,0.629-0.994,0.805c-0.381,0.176-0.791,0.264-1.227,0.264c-0.439,0-0.851-0.088-1.228-0.264
			c-0.379-0.176-0.707-0.445-0.987-0.805c-0.279-0.359-0.5-0.814-0.66-1.365c-0.158-0.549-0.238-1.201-0.238-1.953
			s0.08-1.404,0.238-1.955c0.16-0.553,0.381-1.01,0.66-1.371c0.28-0.362,0.608-0.631,0.987-0.807
			c0.378-0.178,0.787-0.266,1.228-0.266c0.436,0,0.846,0.088,1.227,0.266c0.383,0.176,0.713,0.443,0.994,0.807
			c0.279,0.361,0.5,0.818,0.662,1.371C80.039,88.597,80.119,89.249,80.119,90.001z M79.01,90.001c0-0.656-0.055-1.207-0.164-1.652
			c-0.11-0.444-0.258-0.805-0.444-1.077c-0.187-0.271-0.4-0.468-0.646-0.584c-0.245-0.117-0.498-0.179-0.762-0.179
			s-0.519,0.062-0.762,0.179c-0.244,0.116-0.459,0.313-0.644,0.584c-0.184,0.272-0.33,0.633-0.44,1.077
			c-0.109,0.445-0.164,0.996-0.164,1.652s0.055,1.207,0.164,1.65c0.11,0.442,0.258,0.803,0.44,1.074
			c0.184,0.271,0.398,0.467,0.644,0.584c0.243,0.118,0.498,0.178,0.762,0.178s0.518-0.06,0.762-0.178
			c0.244-0.117,0.459-0.313,0.646-0.584c0.188-0.271,0.334-0.632,0.444-1.074C78.955,91.208,79.01,90.657,79.01,90.001z"/>
		<path style="fill:#E6E6E6;" d="M67.264,91.756l-0.504,2.538h-0.485c-0.093,0-0.171-0.034-0.234-0.102
			c-0.064-0.068-0.096-0.156-0.096-0.266c0-0.016,0-0.029,0.002-0.045c0.002-0.014,0.006-0.03,0.01-0.051l0.426-2.076H64.9
			l-0.427,2.13c-0.03,0.148-0.092,0.253-0.184,0.315c-0.09,0.062-0.191,0.093-0.309,0.093h-0.474l0.51-2.538h-0.877
			c-0.092,0-0.164-0.021-0.215-0.068c-0.053-0.047-0.078-0.125-0.078-0.236c0-0.021,0-0.042,0.002-0.066
			c0.003-0.022,0.007-0.048,0.011-0.071l0.047-0.343h1.225l0.392-1.955H63.13l0.078-0.443c0.021-0.116,0.066-0.202,0.139-0.259
			c0.07-0.057,0.187-0.084,0.343-0.084h0.946l0.433-2.147c0.024-0.12,0.08-0.214,0.166-0.282c0.086-0.067,0.188-0.102,0.309-0.102
			h0.48l-0.504,2.531h1.479l0.506-2.531h0.474c0.1,0,0.184,0.029,0.25,0.09c0.063,0.061,0.098,0.138,0.098,0.233
			c0,0.031-0.002,0.059-0.006,0.078l-0.438,2.13h1.271l-0.078,0.45c-0.021,0.115-0.066,0.2-0.142,0.255
			c-0.073,0.055-0.188,0.081-0.338,0.081h-0.828l-0.391,1.956h1.074c0.096,0,0.17,0.022,0.223,0.068
			c0.051,0.046,0.076,0.127,0.076,0.243c0,0.02,0,0.041-0.002,0.063c-0.002,0.022-0.006,0.046-0.01,0.069l-0.054,0.342H67.264
			L67.264,91.756z M65.014,90.97h1.48l0.391-1.956h-1.481L65.014,90.97z"/>
		<path style="fill:#E6E6E6;" d="M87.736,91.925v-1.184c0-0.074,0.004-0.146,0.014-0.215c0.012-0.068,0.029-0.136,0.059-0.199
			c-0.08,0.102-0.188,0.191-0.317,0.271l-1.033,0.595l-0.264-0.451l1.032-0.6c0.144-0.084,0.289-0.132,0.438-0.144
			c-0.08-0.01-0.156-0.022-0.225-0.047c-0.07-0.021-0.144-0.057-0.214-0.104l-1.039-0.606l0.265-0.449l1.039,0.601
			c0.139,0.079,0.254,0.184,0.342,0.313c-0.037-0.072-0.062-0.145-0.076-0.219c-0.014-0.074-0.02-0.15-0.02-0.23v-1.188h0.526v1.184
			c0,0.164-0.026,0.308-0.084,0.433c0.045-0.062,0.095-0.113,0.146-0.156c0.055-0.045,0.115-0.088,0.184-0.133l1.031-0.595
			l0.266,0.451l-1.032,0.601c-0.068,0.043-0.136,0.077-0.201,0.102c-0.066,0.023-0.136,0.039-0.207,0.049
			c0.071,0.008,0.141,0.021,0.207,0.045c0.065,0.021,0.133,0.055,0.201,0.099l1.038,0.606L89.547,91.2l-1.037-0.6
			c-0.071-0.046-0.137-0.089-0.19-0.134c-0.058-0.043-0.107-0.098-0.15-0.162c0.064,0.134,0.096,0.275,0.096,0.433v1.188
			L87.736,91.925L87.736,91.925z"/>
	</g>
	<rect x="49" y="47.995" style="fill:#335466;" width="55" height="1"/>
</g>
</svg>
